<?xml version="1.0" encoding="UTF-8"?>
<svg viewBox="0 0 803 985" xmlns="http://www.w3.org/2000/svg">
 <g fill-rule="evenodd" stroke-width=".5">
  <path d="m776.2 333.8l0.3 0.2v2l-0.3 0.2-0.2 0.3-17.8 13.3c-11.8 8.8-22.2 17.867-31.2 27.2s-17 19.5-24 30.5-12.667 22-17 33-7.667 22.167-10 33.5-3.5 27-3.5 47 1.333 36.333 4 49 6.5 25 11.5 37 11 23.333 18 34 14.333 20 22 28 15.6 15.4 23.8 22.2c8.133 6.867 17.533 13.467 28.2 19.8s16.5 9.667 17.5 10l1.5 0.5 1 0.5 1 0.5 1 0.3 1 0.2v2l-13.2 33c-8.867 22-18.067 41.733-27.6 59.2-9.467 17.533-20.533 35.467-33.2 53.8s-24.067 33.6-34.2 45.8c-10.2 12.133-19.533 22.133-28 30-8.533 7.8-17.3 14.367-26.3 19.7s-18 9.333-27 12-14.833 4.167-17.5 4.5l-4 0.5-1 0.3-1 0.2-8-0.2c-5.333-0.20001-13.333-1.3-24-3.3s-26.833-6.833-48.5-14.5-38.667-12.833-51-15.5-25-4-38-4-24.667 1-35 3-25.333 6.5-45 13.5-35.667 12.167-48 15.5l-18.5 5-4 0.5-4 0.5v0.5h-20v-0.5l-3.5-0.5-3.5-0.5-2-0.5c-1.333-0.33301-3.667-1-7-2s-9.167-3.5-17.5-7.5-17.333-9.833-27-17.5-18.667-16-27-25-19.433-22.733-33.3-41.2c-13.8-18.533-25.6-35.733-35.4-51.6-9.8667-15.8-19.4-33.267-28.6-52.4-9.1333-19.2-17.533-39.467-25.2-60.8-7.6667-21.333-14.167-43-19.5-65-5.3333-22-9.4333-44.667-12.3-68l-4.2-35v-45h0.5l3-26c2-17.333 5-33.667 9-49s8.8333-29.5 14.5-42.5 12.167-25.5 19.5-37.5c7.3333-12 14.767-22.4 22.3-31.2 7.4667-8.867 15.367-17.133 23.7-24.8s18.833-15.5 31.5-23.5 25.5-14.667 38.5-20 26-9.333 39-12 27.167-4 42.5-4 31 2 47 6 36.167 10.333 60.5 19 38.667 13.5 43 14.5 9.5 1.333 15.5 1c6-0.33301 26.167-6.333 60.5-18s58.167-18.833 71.5-21.5 27.5-4 42.5-4 30.833 1.667 47.5 5 31 7.333 43 12 23.267 10.1 33.8 16.3c10.467 6.133 20.2 13.033 29.2 20.7s17.167 15.833 24.5 24.5 11.433 13.6 12.3 14.8c0.79999 1.133 1.267 1.8 1.4 2z" fill="#00007f" stroke="#221e20"/>
  <g fill="none" stroke="#fff">
   <path d="m0 256v-256h591v0.2c0 0.2-3.8333 0.96667-11.5 2.3s-17.667 4.1667-30 8.5-24 9.5-35 15.5-21.333 12.667-31 20c-9.6667 7.3333-18.333 15.333-26 24-7.6667 8.6667-14.833 17.833-21.5 27.5-6.6667 9.6667-12.6 19.933-17.8 30.8-5.1333 10.8-9.2 22.2-12.2 34.2s-4.7333 25.667-5.2 41l-0.8 23 16.5-0.2c11-0.2 22.5-1.8 34.5-4.8s22.933-7.0667 32.8-12.2c9.8-5.2 19.6-11.733 29.4-19.6 9.8666-7.8 18.867-16.267 27-25.4 8.2-9.2 15.967-19.633 23.3-31.3 7.3333-11.667 13.333-23 18-34 4.6667-11 8.3333-22 11-33s4.3333-23 5-36c0.66669-13 0.90002-21.333 0.70001-25l-0.2-5.5h205v723l-1-0.2-1-0.3-1-0.5-1-0.5-1.5-0.5c-1-0.33331-6.8333-3.6667-17.5-10s-20.067-12.933-28.2-19.8c-8.2-6.8-16.133-14.2-23.8-22.2-7.6667-8-15-17.333-22-28s-13-22-18-34-8.8333-24.333-11.5-37-4-29-4-49 1.1667-35.667 3.5-47 5.6667-22.5 10-33.5 10-22 17-33 15-21.167 24-30.5c9-9.3333 19.4-18.4 31.2-27.2l17.8-13.3 0.2-0.3 0.3-0.2v-2l-0.3-0.2c-0.13336-0.19998-0.60004-0.86667-1.4-2-0.86664-1.2-4.9667-6.1333-12.3-14.8s-15.5-16.833-24.5-24.5c-9-7.6667-18.733-14.567-29.2-20.7-10.533-6.2-21.8-11.633-33.8-16.3-12-4.6667-26.333-8.6667-43-12s-32.5-5-47.5-5-29.167 1.3333-42.5 4-37.167 9.8333-71.5 21.5-54.5 17.667-60.5 18c-6 0.33334-11.167 0-15.5-1-4.3333-1-18.667-5.8333-43-14.5s-44.5-15-60.5-19-31.667-6-47-6-29.5 1.3333-42.5 4-26 6.6667-39 12-25.833 12-38.5 20-23.167 15.833-31.5 23.5c-8.3333 7.6667-16.233 15.933-23.7 24.8-7.5333 8.8-14.967 19.2-22.3 31.2-7.3333 12-13.833 24.5-19.5 37.5-5.6667 13-10.5 27.167-14.5 42.5s-7 31.667-9 49l-3 26h-0.5v-256z"/>
   <path d="m0 771v-214l4.2 35c2.8667 23.333 6.9667 46 12.3 68s11.833 43.667 19.5 65c7.6667 21.333 16.067 41.6 25.2 60.8 9.2 19.133 18.733 36.6 28.6 52.4 9.8 15.867 21.6 33.067 35.4 51.6 13.867 18.467 24.967 32.2 33.3 41.2 8.3333 9 17.333 17.333 27 25 9.6667 7.6667 18.667 13.5 27 17.5 8.3333 4 14.167 6.5 17.5 7.5 3.3333 1 5.6667 1.6667 7 2l2 0.5 3.5 0.5 3.5 0.5v0.5h-246v-214z"/>
  </g>
  <path d="m591 0.2v-0.2h7l0.2 5.5c0.20001 3.6667-0.033325 12-0.70001 25-0.66669 13-2.3333 25-5 36s-6.3333 22-11 33-10.667 22.333-18 34c-7.3333 11.667-15.1 22.1-23.3 31.3-8.1334 9.1333-17.133 17.6-27 25.4-9.8 7.8667-19.6 14.4-29.4 19.6-9.8667 5.1333-20.8 9.2-32.8 12.2s-23.5 4.6-34.5 4.8l-16.5 0.2 0.8-23c0.46668-15.333 2.2-29 5.2-41s7.0667-23.4 12.2-34.2c5.2-10.867 11.133-21.133 17.8-30.8 6.6667-9.6667 13.833-18.833 21.5-27.5 7.6667-8.6667 16.333-16.667 26-24 9.6667-7.3333 20-14 31-20s22.667-11.167 35-15.5c12.333-4.3333 22.333-7.1667 30-8.5 7.6667-1.3333 11.5-2.1 11.5-2.3z" fill="#00007f" stroke="#221e20"/>
  <g fill="none">
   <path d="m789.8 758l13.2-33v260h-213v-1l1-0.2 1-0.3 4-0.5c2.6667-0.33331 8.5-1.8333 17.5-4.5s18-6.6667 27-12 17.767-11.9 26.3-19.7c8.4667-7.8666 17.8-17.867 28-30 10.133-12.2 21.533-27.467 34.2-45.8s23.733-36.267 33.2-53.8c9.5333-17.467 18.733-37.2 27.6-59.2z" stroke="#fff"/>
   <path d="m582 983.8l8 0.2v1h-324v-0.5l4-0.5 4-0.5 18.5-5c12.333-3.3333 28.333-8.5 48-15.5s34.667-11.5 45-13.5 22-3 35-3 25.667 1.3333 38 4 29.333 7.8333 51 15.5 37.833 12.5 48.5 14.5 18.667 3.1 24 3.3z" stroke="#fefefe"/>
  </g>
 </g>
</svg>
